{
	"asset":{
		"generator":"Khronos glTF Blender I/O v4.1.63",
		"version":"2.0"
	},
	"scene":0,
	"scenes":[
		{
			"name":"Scene",
			"nodes":[
				0
			]
		}
	],
	"nodes":[
		{
			"mesh":0,
			"name":"Telescope_Colors_0",
			"scale":[
				0.019999999552965164,
				0.019999999552965164,
				0.019999999552965164
			],
			"translation":[
				-0.2173222303390503,
				1.6754755973815918,
				-0.04824165254831314
			]
		}
	],
	"materials":[
		{
			"doubleSided":true,
			"name":"\u30de\u30c6\u30ea\u30a2\u30eb.001",
			"pbrMetallicRoughness":{
				"baseColorTexture":{
					"index":0
				},
				"metallicFactor":0,
				"roughnessFactor":0.5
			}
		}
	],
	"meshes":[
		{
			"name":"Telescope_Colors_0",
			"primitives":[
				{
					"attributes":{
						"POSITION":0,
						"NORMAL":1,
						"TEXCOORD_0":2
					},
					"indices":3,
					"material":0
				}
			]
		}
	],
	"textures":[
		{
			"sampler":0,
			"source":0
		}
	],
	"images":[
		{
			"mimeType":"image/png",
			"name":"tex",
			"uri":"tex.png"
		}
	],
	"accessors":[
		{
			"bufferView":0,
			"componentType":5126,
			"count":2773,
			"max":[
				52.728431701660156,
				39.872459411621094,
				49.54731750488281
			],
			"min":[
				-35.48291778564453,
				-84.17497253417969,
				-45.81365203857422
			],
			"type":"VEC3"
		},
		{
			"bufferView":1,
			"componentType":5126,
			"count":2773,
			"type":"VEC3"
		},
		{
			"bufferView":2,
			"componentType":5126,
			"count":2773,
			"type":"VEC2"
		},
		{
			"bufferView":3,
			"componentType":5123,
			"count":5322,
			"type":"SCALAR"
		}
	],
	"bufferViews":[
		{
			"buffer":0,
			"byteLength":33276,
			"byteOffset":0,
			"target":34962
		},
		{
			"buffer":0,
			"byteLength":33276,
			"byteOffset":33276,
			"target":34962
		},
		{
			"buffer":0,
			"byteLength":22184,
			"byteOffset":66552,
			"target":34962
		},
		{
			"buffer":0,
			"byteLength":10644,
			"byteOffset":88736,
			"target":34963
		}
	],
	"samplers":[
		{
			"magFilter":9729,
			"minFilter":9987
		}
	],
	"buffers":[
		{
			"byteLength":99380,
			"uri":"Telescope.bin"
		}
	]
}
