{
	"asset":{
		"generator":"Khronos glTF Blender I/O v4.1.63",
		"version":"2.0"
	},
	"extensionsUsed":[
		"KHR_materials_specular"
	],
	"scene":0,
	"scenes":[
		{
			"name":"Scene",
			"nodes":[
				0
			]
		}
	],
	"nodes":[
		{
			"mesh":0,
			"name":"CUPIC_SCOOTER",
			"rotation":[
				0.70710688829422,
				0,
				0,
				0.7071066498756409
			],
			"scale":[
				0.02500000037252903,
				0.02500000409781933,
				0.02500000409781933
			],
			"translation":[
				8,
				0,
				0
			]
		}
	],
	"materials":[
		{
			"doubleSided":true,
			"extensions":{
				"KHR_materials_specular":{
					"specularFactor":0
				}
			},
			"name":"Cylinder",
			"pbrMetallicRoughness":{
				"baseColorTexture":{
					"index":0
				},
				"metallicFactor":0
			}
		}
	],
	"meshes":[
		{
			"name":"CUPIC_SCOOTER",
			"primitives":[
				{
					"attributes":{
						"POSITION":0,
						"NORMAL":1,
						"TEXCOORD_0":2
					},
					"indices":3,
					"material":0
				}
			]
		}
	],
	"textures":[
		{
			"sampler":0,
			"source":0
		}
	],
	"images":[
		{
			"mimeType":"image/png",
			"name":"tex",
			"uri":"tex.png"
		}
	],
	"accessors":[
		{
			"bufferView":0,
			"componentType":5126,
			"count":4470,
			"max":[
				76.66480255126953,
				167.6230010986328,
				186.0709991455078
			],
			"min":[
				-686.8489990234375,
				-168.76400756835938,
				-353.3117980957031
			],
			"type":"VEC3"
		},
		{
			"bufferView":1,
			"componentType":5126,
			"count":4470,
			"type":"VEC3"
		},
		{
			"bufferView":2,
			"componentType":5126,
			"count":4470,
			"type":"VEC2"
		},
		{
			"bufferView":3,
			"componentType":5123,
			"count":6582,
			"type":"SCALAR"
		}
	],
	"bufferViews":[
		{
			"buffer":0,
			"byteLength":53640,
			"byteOffset":0,
			"target":34962
		},
		{
			"buffer":0,
			"byteLength":53640,
			"byteOffset":53640,
			"target":34962
		},
		{
			"buffer":0,
			"byteLength":35760,
			"byteOffset":107280,
			"target":34962
		},
		{
			"buffer":0,
			"byteLength":13164,
			"byteOffset":143040,
			"target":34963
		}
	],
	"samplers":[
		{
			"magFilter":9729,
			"minFilter":9987
		}
	],
	"buffers":[
		{
			"byteLength":156204,
			"uri":"bike.bin"
		}
	]
}
