{
	"asset":{
		"generator":"Khronos glTF Blender I/O v4.1.63",
		"version":"2.0"
	},
	"scene":0,
	"scenes":[
		{
			"name":"Scene",
			"nodes":[
				7
			]
		}
	],
	"nodes":[
		{
			"mesh":0,
			"name":"Leg12_Colors_0",
			"scale":[
				4.999999523162842,
				4.999999523162842,
				4.999999523162842
			],
			"translation":[
				-371.1959228515625,
				0,
				3.229838694096543e-05
			]
		},
		{
			"children":[
				0
			],
			"name":"Leg12",
			"translation":[
				339.9999694824219,
				-275,
				0
			]
		},
		{
			"children":[
				1
			],
			"name":"Chair.001",
			"translation":[
				24.999998092651367,
				0,
				30
			]
		},
		{
			"children":[
				2
			],
			"name":"Room2",
			"translation":[
				-365.0000305175781,
				275,
				0
			]
		},
		{
			"children":[
				3
			],
			"name":"Scene_1",
			"scale":[
				0.009999999776482582,
				0.009999999776482582,
				0.009999999776482582
			]
		},
		{
			"children":[
				4
			],
			"name":"RootNode"
		},
		{
			"children":[
				5
			],
			"name":"6e9b1227653e48a397b3734fb7bf463a.fbx",
			"rotation":[
				0.70710688829422,
				0,
				0,
				0.7071066498756409
			]
		},
		{
			"children":[
				6
			],
			"name":"Sketchfab_model",
			"rotation":[
				0,
				0.7071066498756409,
				0.70710688829422,
				3.090861255827804e-08
			],
			"translation":[
				-3.700000047683716,
				0,
				0.28999999165534973
			]
		}
	],
	"materials":[
		{
			"doubleSided":true,
			"name":"\u30de\u30c6\u30ea\u30a2\u30eb",
			"pbrMetallicRoughness":{
				"baseColorTexture":{
					"index":0
				},
				"metallicFactor":0,
				"roughnessFactor":0.5
			}
		}
	],
	"meshes":[
		{
			"name":"Leg12_Colors_0",
			"primitives":[
				{
					"attributes":{
						"POSITION":0,
						"NORMAL":1,
						"TEXCOORD_0":2
					},
					"indices":3,
					"material":0
				}
			]
		}
	],
	"textures":[
		{
			"sampler":0,
			"source":0
		}
	],
	"images":[
		{
			"mimeType":"image/png",
			"name":"tex",
			"uri":"tex.png"
		}
	],
	"accessors":[
		{
			"bufferView":0,
			"componentType":5126,
			"count":173,
			"max":[
				29.404144287109375,
				38.542781829833984,
				32.19635009765625
			],
			"min":[
				-28.944427490234375,
				-33.028995513916016,
				-30.15152931213379
			],
			"type":"VEC3"
		},
		{
			"bufferView":1,
			"componentType":5126,
			"count":173,
			"type":"VEC3"
		},
		{
			"bufferView":2,
			"componentType":5126,
			"count":173,
			"type":"VEC2"
		},
		{
			"bufferView":3,
			"componentType":5123,
			"count":300,
			"type":"SCALAR"
		}
	],
	"bufferViews":[
		{
			"buffer":0,
			"byteLength":2076,
			"byteOffset":0,
			"target":34962
		},
		{
			"buffer":0,
			"byteLength":2076,
			"byteOffset":2076,
			"target":34962
		},
		{
			"buffer":0,
			"byteLength":1384,
			"byteOffset":4152,
			"target":34962
		},
		{
			"buffer":0,
			"byteLength":600,
			"byteOffset":5536,
			"target":34963
		}
	],
	"samplers":[
		{
			"magFilter":9729,
			"minFilter":9987
		}
	],
	"buffers":[
		{
			"byteLength":6136,
			"uri":"chair.bin"
		}
	]
}
