{
	"asset":{
		"generator":"Khronos glTF Blender I/O v4.1.63",
		"version":"2.0"
	},
	"scene":0,
	"scenes":[
		{
			"name":"Scene",
			"nodes":[
				0
			]
		}
	],
	"nodes":[
		{
			"mesh":0,
			"name":"\u5186\u67f1.002",
			"rotation":[
				0,
				0,
				-0.3826834559440613,
				0.9238795638084412
			],
			"scale":[
				0.4999999701976776,
				7.999999523162842,
				0.5
			],
			"translation":[
				0,
				12,
				150
			]
		}
	],
	"animations":[
		{
			"channels":[
				{
					"sampler":0,
					"target":{
						"node":0,
						"path":"translation"
					}
				},
				{
					"sampler":1,
					"target":{
						"node":0,
						"path":"rotation"
					}
				}
			],
			"name":"\u5186\u67f1.002Action",
			"samplers":[
				{
					"input":4,
					"interpolation":"LINEAR",
					"output":5
				},
				{
					"input":4,
					"interpolation":"LINEAR",
					"output":6
				}
			]
		}
	],
	"materials":[
		{
			"doubleSided":true,
			"name":"\u30de\u30c6\u30ea\u30a2\u30eb.002",
			"pbrMetallicRoughness":{
				"baseColorTexture":{
					"index":0
				},
				"metallicFactor":0,
				"roughnessFactor":0.5
			}
		}
	],
	"meshes":[
		{
			"name":"\u5186\u67f1.005",
			"primitives":[
				{
					"attributes":{
						"POSITION":0,
						"NORMAL":1,
						"TEXCOORD_0":2
					},
					"indices":3,
					"material":0
				}
			]
		}
	],
	"textures":[
		{
			"sampler":0,
			"source":0
		}
	],
	"images":[
		{
			"mimeType":"image/png",
			"name":"tex2",
			"uri":"tex2.png"
		}
	],
	"accessors":[
		{
			"bufferView":0,
			"componentType":5126,
			"count":768,
			"max":[
				24.000001907348633,
				1.5000001192092896,
				22.097209930419922
			],
			"min":[
				-24.000001907348633,
				-1.5000001192092896,
				-2.0000038146972656
			],
			"type":"VEC3"
		},
		{
			"bufferView":1,
			"componentType":5126,
			"count":768,
			"type":"VEC3"
		},
		{
			"bufferView":2,
			"componentType":5126,
			"count":768,
			"type":"VEC2"
		},
		{
			"bufferView":3,
			"componentType":5123,
			"count":1488,
			"type":"SCALAR"
		},
		{
			"bufferView":4,
			"componentType":5126,
			"count":181,
			"max":[
				7.5
			],
			"min":[
				0
			],
			"type":"SCALAR"
		},
		{
			"bufferView":5,
			"componentType":5126,
			"count":181,
			"type":"VEC3"
		},
		{
			"bufferView":6,
			"componentType":5126,
			"count":181,
			"type":"VEC4"
		}
	],
	"bufferViews":[
		{
			"buffer":0,
			"byteLength":9216,
			"byteOffset":0,
			"target":34962
		},
		{
			"buffer":0,
			"byteLength":9216,
			"byteOffset":9216,
			"target":34962
		},
		{
			"buffer":0,
			"byteLength":6144,
			"byteOffset":18432,
			"target":34962
		},
		{
			"buffer":0,
			"byteLength":2976,
			"byteOffset":24576,
			"target":34963
		},
		{
			"buffer":0,
			"byteLength":724,
			"byteOffset":27552
		},
		{
			"buffer":0,
			"byteLength":2172,
			"byteOffset":28276
		},
		{
			"buffer":0,
			"byteLength":2896,
			"byteOffset":30448
		}
	],
	"samplers":[
		{
			"magFilter":9729,
			"minFilter":9987
		}
	],
	"buffers":[
		{
			"byteLength":33344,
			"uri":"GarageDoor.bin"
		}
	]
}
